<?xml version="1.0" encoding="utf-8"?>
<svg version="1.1" id="Layer_1" xmlns="http://www.w3.org/2000/svg" xmlns:xlink="http://www.w3.org/1999/xlink" x="0px" y="0px"
	 viewBox="0 0 150 150" style="enable-background:new 0 0 150 150;" xml:space="preserve">
<style type="text/css">
	.st0{
		fill: #e1e1e1;
	}
</style>
<path class="st0" d="M75,0C33.6,0,0,33.6,0,75c0,5.4,0.6,10.7,1.7,15.8L44.2,122c0,0,0,0,0,0l20.6-2.7c0.4,0,0.7-0.3,0.9-0.6
	c0.8-1.2,2-2,3.5-2.2l18.1-2.4c2.9-0.4,5.6,1.7,5.8,4.7c0.1,2.5-1.7,4.8-4.3,5.1l-18.3,2.4c-1.4,0.2-2.7-0.2-3.7-1
	c-0.2-0.2-0.5-0.3-0.8-0.2l-23.3,3.1c0,0,0,0,0,0L4.2,99.9C14.5,129.1,42.3,150,75,150c41.4,0,75-33.6,75-75S116.4,0,75,0z"/>
</svg>
